<svg xmlns="http://www.w3.org/2000/svg" version="1.1" id="Layer_1" viewBox="0 0 512 512" style="enable-background:new 0 0 512 512;" xml:space="preserve">
    <path style="fill:#EF539D;" d="M369.983,59.047c0,0-0.225,0.061-0.637,0.176c-3.246,0.909-18.763,5.384-38.711,13.261  c-13.41,5.297-28.814,12.129-43.83,20.45c-10.139,5.619-20.096,11.916-29.143,18.876c-8.661,6.662-16.489,13.927-22.829,21.789  c-7.469,9.261-13.33,18.047-17.745,26.323c-1.779,3.335-3.325,6.589-4.642,9.758c-2,4.809-3.475,9.421-4.467,13.83  c-5.248,23.314,3.107,40.92,20.006,51.633c4.983,3.16,10.367,5.497,16.075,6.923c4.356,1.089,8.901,1.643,13.603,1.62  c4.702,0.022,9.247-0.532,13.603-1.62c19.676-4.535,41.319-18.787,62.87-45.513C373.346,147.924,369.983,59.047,369.983,59.047z"/>
    <path style="fill:#F7AFD4;" d="M286.806,92.934c15.016-8.32,30.42-15.154,43.83-20.45c-3.056-33.096-13.22-61.303-13.22-61.303  s-32.244,18.397-59.752,45.053C269.07,67.288,279.664,79.761,286.806,92.934z"/>
    <path style="fill:#F58FBF;" d="M257.663,56.234C230.154,29.578,197.91,11.18,197.91,11.18s-10.165,28.207-13.22,61.303  c13.41,5.296,28.814,12.129,43.83,20.45c10.139,5.619,20.096,11.916,29.143,18.876c9.047-6.959,19.004-13.257,29.143-18.876  C279.664,79.761,269.07,67.288,257.663,56.234z"/>
    <path style="fill:#EF72AC;" d="M212.447,169.68c1.317-3.168,2.863-6.421,4.642-9.758c4.414-8.276,10.276-17.061,17.745-26.323  c6.34-7.862,14.168-15.127,22.829-21.789c-9.047-6.959-19.004-13.257-29.143-18.876c-15.016-8.32-30.42-15.154-43.83-20.45  c-22.478-8.878-39.347-13.438-39.347-13.438s-3.363,88.878,35.849,137.505c21.551,26.726,43.193,40.979,62.869,45.513  c-5.708-1.426-11.092-3.764-16.075-6.924C207.891,222.403,199.871,199.919,212.447,169.68z"/>
    <path style="fill:#F58FBF;" d="M292.866,70.116c-5.206-9.604-12.25-18.831-20.104-27.411c-5.043,4.205-10.149,8.73-15.101,13.529  c11.408,11.055,22.002,23.526,29.143,36.7c15.016-8.32,30.42-15.154,43.83-20.45c-0.619-6.695-1.53-13.184-2.587-19.287  C316.86,57.894,304.75,63.532,292.866,70.116z"/>
    <path style="fill:#EF72AC;" d="M257.663,90.56c-9.047-6.959-19.004-13.257-29.143-18.876c-14.013-7.764-28.34-14.216-41.093-19.349  c-1.122,6.351-2.09,13.138-2.737,20.15c13.41,5.296,28.814,12.129,43.83,20.45c10.139,5.619,20.096,11.916,29.143,18.876  c9.047-6.959,19.004-13.257,29.143-18.876c-2.852-5.261-6.261-10.408-10.046-15.399C270.134,81.581,263.693,85.92,257.663,90.56z"/>
    <path style="fill:#EF539D;" d="M244.06,242.065c-5.708-1.426-11.092-3.764-16.075-6.924c-20.094-12.739-28.114-35.223-15.538-65.462  c1.317-3.168,2.863-6.421,4.642-9.758c4.414-8.276,10.276-17.061,17.745-26.323c6.34-7.862,14.168-15.127,22.829-21.789  c-5.114-3.934-10.523-7.647-16.086-11.155c-8.91,6.999-16.979,14.583-23.574,22.762c-8.225,10.201-14.681,19.876-19.544,28.991  c-1.96,3.674-3.662,7.258-5.113,10.747c-6.565,15.785-8.026,29.647-5.399,41.361C207.242,226.141,226.439,238.004,244.06,242.065z"/>
    <path style="fill:#E5197C;" d="M369.346,59.223c-1.99,30.03-9.314,79.698-35.212,111.814c-21.551,26.726-43.193,40.979-62.87,45.513  c-4.356,1.089-8.901,1.643-13.603,1.62c-4.702,0.023-9.247-0.532-13.603-1.62c-5.708-1.426-11.092-3.764-16.075-6.923  c-10.031-6.359-17.053-15.149-20.006-26.117c-5.248,23.314,3.107,40.92,20.006,51.633c4.983,3.16,10.367,5.497,16.075,6.924  c4.356,1.089,8.901,1.643,13.603,1.62c4.702,0.023,9.247-0.532,13.603-1.62c19.676-4.535,41.319-18.787,62.87-45.513  c39.212-48.627,35.849-137.505,35.849-137.505S369.758,59.108,369.346,59.223z"/>
    <path style="fill:#8FCC05;" d="M337.651,401.992c-29.262,29.262-79.473,26.491-79.473,26.491s-2.77-50.212,26.491-79.473  s79.473-26.491,79.473-26.491S366.911,372.731,337.651,401.992z"/>
    <path style="fill:#7AAB02;" d="M364.141,322.519L258.177,428.483c0,0,50.212,2.77,79.473-26.491  C366.911,372.731,364.141,322.519,364.141,322.519z"/>
    <path style="fill:#8FCC05;" d="M185.627,430.516c26.496,26.496,71.962,23.987,71.962,23.987s2.508-45.467-23.987-71.962  s-71.962-23.987-71.962-23.987S159.131,404.021,185.627,430.516z"/>
    <path style="fill:#7AAB02;" d="M185.627,430.516c26.496,26.496,71.962,23.987,71.962,23.987l-95.949-95.948  C161.639,358.554,159.131,404.021,185.627,430.516z"/>
    <g>
	    <polygon style="fill:#D80029;" points="460.043,136.696 441.504,118.158 452.349,107.312 460.043,115.005 467.657,107.392    478.502,118.236  "/>
        <polygon style="fill:#D80029;" points="52.036,168.773 33.498,150.233 44.343,139.388 52.036,147.082 59.651,139.468    70.496,150.313  "/>
        <polygon style="fill:#D80029;" points="174.692,304.867 156.154,286.328 167,275.483 174.692,283.176 182.306,275.563    193.152,286.408  "/>
        <polygon style="fill:#D80029;" points="375.378,471.97 356.838,453.432 367.684,442.586 375.378,450.279 382.991,442.666    393.836,453.511  "/>
    </g>
    <path d="M371.42,315.24l-6.857-0.378c-2.189-0.122-53.994-2.599-85.318,28.726c-5.679,5.679-10.242,12.032-13.914,18.64V250.918  c2.614-0.306,5.195-0.767,7.725-1.396c22.695-5.254,45.88-21.904,67.048-48.157c40.547-50.284,37.684-138.863,37.542-142.609  l-0.364-9.627l-9.3,2.513c-0.605,0.164-13.063,3.556-30.849,10.145c-3.912-29.12-12.118-52.137-12.503-53.207L321.538,0  l-7.924,4.521c-1.266,0.722-29.47,16.927-55.952,41.181C231.179,21.447,202.975,5.242,201.71,4.521L193.788,0l-3.092,8.582  c-0.385,1.07-8.592,24.088-12.504,53.207c-17.785-6.588-30.243-9.982-30.847-10.145l-9.3-2.513l-0.364,9.627  c-0.142,3.747-3.006,92.326,37.542,142.608c21.142,26.22,44.293,42.859,66.962,48.134c0.006,0.001,0.011,0.003,0.017,0.005  c0.012,0.003,0.024,0.005,0.036,0.008c0.034,0.008,0.069,0.017,0.102,0.026v-0.001c2.51,0.622,5.072,1.083,7.656,1.386v140.233  c-3.028-4.958-6.643-9.712-10.97-14.037c-28.589-28.591-75.812-26.33-77.807-26.223l-6.857,0.378l-0.378,6.857  c-0.109,1.996-2.368,49.217,26.223,77.807c21.9,21.9,54.726,25.698,69.788,26.228V512h15.338v-75.816  c15.904-0.417,53.134-4.163,77.741-28.77c31.324-31.324,28.846-83.128,28.726-85.317L371.42,315.24z M191.05,425.094  c-17.711-17.711-21.11-45.664-21.689-58.818c13.161,0.58,41.11,3.981,58.818,21.689c17.711,17.711,21.11,45.664,21.689,58.818  C236.707,446.203,208.757,442.802,191.05,425.094z M313.082,22.827c2.86,9.684,7.124,26.181,9.319,44.705  c-0.129,0.053-0.256,0.107-0.384,0.161c-0.346,0.142-0.686,0.286-1.032,0.429c-1.46,0.604-2.909,1.214-4.347,1.827  c-0.518,0.221-1.035,0.443-1.55,0.666c-1.464,0.632-2.917,1.269-4.358,1.91c-0.294,0.131-0.593,0.261-0.887,0.393  c-1.698,0.761-3.375,1.53-5.038,2.303c-0.442,0.206-0.879,0.413-1.319,0.62c-1.285,0.603-2.558,1.211-3.821,1.821  c-0.459,0.222-0.92,0.444-1.376,0.667c-1.628,0.796-3.242,1.595-4.831,2.402c-0.062,0.032-0.123,0.063-0.185,0.095  c-1.211,0.616-2.412,1.234-3.6,1.856c-0.043-0.067-0.09-0.136-0.133-0.204c-0.607-0.957-1.233-1.917-1.879-2.879  c-0.139-0.207-0.284-0.414-0.425-0.622c-0.529-0.778-1.071-1.556-1.625-2.337c-0.208-0.291-0.416-0.584-0.627-0.875  c-0.58-0.804-1.174-1.608-1.78-2.415c-0.137-0.182-0.269-0.364-0.407-0.546c-0.74-0.975-1.503-1.952-2.282-2.931  c-0.198-0.248-0.402-0.498-0.602-0.746c-0.61-0.758-1.233-1.516-1.867-2.276c-0.242-0.29-0.485-0.581-0.731-0.872  c-0.762-0.902-1.537-1.804-2.331-2.708c-0.077-0.088-0.15-0.175-0.228-0.263c-0.871-0.988-1.766-1.977-2.675-2.965  c-0.256-0.278-0.515-0.556-0.774-0.833c-0.698-0.752-1.407-1.503-2.127-2.256c-0.17-0.178-0.331-0.355-0.502-0.533  C285.414,41.21,303.093,29.187,313.082,22.827z M202.248,22.826c11.119,7.077,31.765,21.171,50.078,38.916  c1.117,1.082,2.198,2.161,3.266,3.237c0.224,0.226,0.449,0.453,0.671,0.679c1.026,1.045,2.03,2.088,3.007,3.128  c0.178,0.189,0.352,0.379,0.529,0.569c0.902,0.966,1.784,1.931,2.644,2.893c0.132,0.148,0.269,0.296,0.4,0.444  c0.923,1.039,1.817,2.074,2.691,3.107c0.195,0.231,0.39,0.462,0.583,0.692c0.869,1.039,1.721,2.076,2.541,3.107  c0.084,0.105,0.164,0.211,0.246,0.316c0.766,0.969,1.506,1.936,2.228,2.899c0.151,0.201,0.305,0.403,0.453,0.604  c0.748,1.01,1.471,2.017,2.171,3.022c0.144,0.207,0.284,0.413,0.426,0.62c0.671,0.974,1.322,1.947,1.946,2.914  c0.037,0.056,0.075,0.114,0.111,0.17c-0.191,0.112-0.373,0.228-0.564,0.342c-1.197,0.711-2.376,1.425-3.543,2.143  c-0.325,0.2-0.659,0.398-0.982,0.599c-1.475,0.916-2.925,1.837-4.351,2.764c-0.348,0.226-0.684,0.454-1.029,0.68  c-1.075,0.707-2.138,1.415-3.183,2.127c-0.465,0.317-0.923,0.635-1.382,0.953c-0.925,0.641-1.839,1.283-2.738,1.927  c-0.266,0.19-0.544,0.378-0.808,0.569c-0.441-0.319-0.896-0.636-1.344-0.954c-0.376-0.268-0.749-0.536-1.13-0.803  c-0.901-0.632-1.815-1.261-2.739-1.889c-0.193-0.131-0.38-0.263-0.575-0.394c-1.121-0.756-2.261-1.508-3.415-2.259  c-0.34-0.221-0.689-0.441-1.033-0.662c-0.831-0.534-1.667-1.066-2.514-1.597c-0.434-0.271-0.871-0.541-1.309-0.811  c-0.786-0.486-1.58-0.97-2.38-1.453c-0.452-0.272-0.904-0.545-1.36-0.816c-0.849-0.505-1.708-1.007-2.572-1.509  c-0.403-0.234-0.803-0.469-1.209-0.702c-1.268-0.728-2.548-1.453-3.847-2.172c-1.587-0.879-3.202-1.753-4.834-2.621  c-0.525-0.279-1.062-0.554-1.592-0.832c-1.119-0.587-2.24-1.173-3.38-1.755c-0.646-0.33-1.304-0.656-1.957-0.985  c-1.046-0.526-2.095-1.049-3.157-1.57c-0.701-0.344-1.409-0.684-2.117-1.026c-1.039-0.501-2.084-1-3.138-1.496  c-0.731-0.345-1.466-0.687-2.205-1.029c-1.059-0.491-2.128-0.978-3.202-1.463c-0.742-0.335-1.485-0.672-2.234-1.005  c-1.111-0.494-2.234-0.984-3.36-1.472c-0.724-0.315-1.445-0.63-2.175-0.943c-1.242-0.531-2.5-1.056-3.759-1.581  c-0.626-0.261-1.245-0.525-1.875-0.783c-0.11-0.045-0.218-0.092-0.327-0.137C195.118,49.043,199.387,32.523,202.248,22.826z   M187.161,191.737c-29.409-36.469-33.657-98.307-34.152-122.39c6.954,2.201,17.149,5.643,28.865,10.269  c15.684,6.194,30.129,12.932,42.931,20.025c1.64,0.909,3.244,1.826,4.83,2.748c0.445,0.259,0.883,0.517,1.324,0.777  c1.239,0.729,2.46,1.462,3.664,2.198c0.363,0.222,0.73,0.443,1.09,0.665c1.505,0.932,2.985,1.867,4.432,2.808  c0.286,0.186,0.563,0.373,0.848,0.56c1.175,0.771,2.33,1.546,3.465,2.322c0.217,0.148,0.432,0.297,0.647,0.446  c-0.783,0.679-1.552,1.36-2.31,2.043c-0.033,0.03-0.063,0.059-0.096,0.089c-0.912,0.825-1.8,1.652-2.674,2.483  c-0.26,0.246-0.515,0.493-0.771,0.74c-0.709,0.683-1.405,1.368-2.087,2.054c-0.195,0.197-0.396,0.393-0.589,0.59  c-0.841,0.856-1.661,1.715-2.46,2.575c-0.187,0.201-0.367,0.404-0.552,0.605c-0.633,0.69-1.253,1.382-1.858,2.075  c-0.216,0.247-0.433,0.495-0.645,0.742c-0.751,0.874-1.488,1.749-2.195,2.626c-6.619,8.208-12.222,16.325-16.694,24.178  c-0.639,1.122-1.255,2.238-1.847,3.349c-0.469,0.879-0.925,1.759-1.368,2.636c-1.327,2.63-2.53,5.239-3.589,7.787l0,0  c-0.391,0.939-0.761,1.873-1.117,2.805c-0.113,0.297-0.217,0.591-0.326,0.887c-0.236,0.635-0.468,1.269-0.688,1.9  c-0.121,0.347-0.233,0.691-0.349,1.037c-0.193,0.579-0.383,1.155-0.563,1.73c-0.112,0.36-0.22,0.718-0.327,1.076  c-0.168,0.562-0.33,1.122-0.486,1.681c-0.099,0.356-0.196,0.712-0.289,1.065c-0.149,0.564-0.288,1.127-0.424,1.687  c-0.082,0.338-0.165,0.678-0.242,1.015c-0.136,0.597-0.26,1.191-0.38,1.784c-0.059,0.292-0.124,0.586-0.179,0.877  c-0.14,0.73-0.264,1.456-0.38,2.18c-0.024,0.15-0.054,0.302-0.077,0.451c-0.136,0.88-0.254,1.756-0.354,2.625  c-0.021,0.185-0.035,0.367-0.055,0.551c-0.073,0.674-0.138,1.345-0.19,2.011c-0.022,0.292-0.037,0.582-0.055,0.873  c-0.036,0.556-0.067,1.11-0.088,1.662c-0.012,0.321-0.018,0.64-0.026,0.959c-0.011,0.518-0.018,1.036-0.016,1.549  c0.001,0.327,0.005,0.652,0.011,0.978c0.01,0.506,0.028,1.009,0.05,1.511c0.014,0.319,0.029,0.639,0.048,0.956  c0.032,0.511,0.074,1.019,0.119,1.527c0.027,0.299,0.05,0.598,0.081,0.895c0.058,0.556,0.131,1.106,0.206,1.656  c0.033,0.238,0.059,0.48,0.094,0.717c0.007,0.045,0.011,0.092,0.018,0.137C195.266,201.328,191.184,196.728,187.161,191.737z   M233.728,229.659c-0.551-0.32-1.097-0.651-1.638-0.994c-6.963-4.414-11.927-9.899-14.864-16.342  c-4.897-10.74-4.168-24.143,2.302-39.698c1.225-2.945,2.681-6.004,4.327-9.092c1.607-3.013,3.413-6.085,5.411-9.203  c3.328-5.196,7.187-10.521,11.537-15.915c4.884-6.055,11.041-12.1,18.338-18.004c1.042-0.844,2.108-1.684,3.196-2.522  c3.042-2.34,6.277-4.666,9.69-6.968c5.689-3.838,11.876-7.611,18.493-11.278c8.001-4.434,16.644-8.727,25.829-12.837  c5.511-2.465,11.219-4.865,17.101-7.188c11.696-4.619,21.899-8.063,28.865-10.268c-0.495,24.085-4.745,85.92-34.152,122.389  c-19.014,23.579-39.284,38.398-58.622,42.854l-0.137,0.033c-3.771,0.942-7.711,1.399-11.78,1.391  c-3.991,0.025-7.934-0.448-11.706-1.392C241.678,233.565,237.585,231.897,233.728,229.659z M332.227,396.569  c-20.147,20.147-52.106,23.687-66.358,24.222c0.535-14.257,4.076-46.213,24.221-66.358c20.154-20.154,52.129-23.689,66.372-24.222  C355.953,344.443,352.452,376.346,332.227,396.569z"/>
</svg>