<svg xmlns="http://www.w3.org/2000/svg" xmlns:xlink="http://www.w3.org/1999/xlink" version="1.1" id="Layer_1" x="0px" y="0px" viewBox="0 0 499.328 499.328" style="enable-background:new 0 0 499.328 499.328;" xml:space="preserve">
<path style="fill:#8E8666;" d="M152.312,145.728c0-63.312,22.24-132.048,98.488-132.048s98.496,68.736,98.496,132.048  c0,2.416-0.168,4.776-0.312,7.144c3.864-11.968,6.08-24.816,6.08-38.248C355.064,51.32,308.384,0,250.8,0  c-57.576,0-104.248,51.32-104.248,114.624c0,13.44,2.2,26.28,6.064,38.248C152.488,150.504,152.312,148.144,152.312,145.728z"/>
    <path style="fill:#A89F7B;" d="M231.568,15.496c0.488-4.688,1.144-9.288,1.952-13.8c-49.344,9.072-86.968,56.112-86.968,112.92  c0,13.44,2.2,26.28,6.064,38.248c-0.128-2.368-0.296-4.728-0.296-7.144C152.312,88.144,170.864,26.248,231.568,15.496z"/>
    <path style="fill:#EAE3B0;" d="M74.808,115.328v298.168c0,56.28,43.336,85.832,99.584,85.832h152.832  c56.256,0,99.584-29.552,99.584-85.832V115.328H74.808z"/>
    <path style="fill:#DDD694;" d="M116.584,115.328L72.52,413.752c0,56.28,45.624,85.576,101.872,85.576h152.832  c56.256,0,99.584-29.552,99.584-85.832V115.328H116.584z"/>
    <path style="fill:#CCC27F;" d="M170.808,499.328h156.416c56.256,0,99.584-29.552,99.584-85.832V115.328h-280"/>
    <polyline style="fill:#C6B56F;" points="426.808,411.328 426.808,115.328 146.808,115.328 "/>
    <rect x="74.808" y="155.328" style="fill:#3592AF;" width="352" height="56"/>
    <polyline style="fill:#277BA0;" points="74.808,211.328 426.808,211.328 426.808,155.328 "/>
    <rect x="74.808" y="251.336" style="fill:#3592AF;" width="352" height="56"/>
    <polyline style="fill:#277BA0;" points="74.808,307.328 426.808,307.328 426.808,251.328 "/>
    <rect x="74.808" y="347.336" style="fill:#3592AF;" width="352" height="56"/>
    <polyline style="fill:#277BA0;" points="74.808,403.328 426.808,403.328 426.808,347.328 "/>
    <path style="fill:#C9552D;" d="M77.376,443.328c11.528,35.352,50.496,56,97.016,56h152.832c46.504,0,84.424-20.792,94.872-56H77.376  z"/>
    <path style="fill:#D86639;" d="M77.376,443.328c12.184,32,50.496,32,97.016,32h152.832c46.504,0,82.672,0,94.872-32H77.376z"/>
    <path style="fill:#186689;" d="M170.808,185.824c0,10.032-9.944,18.176-19.992,18.176l0,0c-10.048,0-20.008-8.152-20.008-18.176  V131.28c0-10.04,9.96-10.904,20.008-10.904l0,0c10.048,0,19.992,0.864,19.992,10.904V185.824z"/>
    <path style="fill:#D86639;" d="M170.808,169.144c0,10.048-8.904,21.224-18.944,21.224l0,0c-13.808,0-21.056-11.176-21.056-21.224  V118.04c0-10.048,10.24-11.296,20.28-11.296l0,0c10.04,0,19.72,8.728,19.72,18.776V169.144z"/>
    <path style="fill:#C9552D;" d="M151.088,106.744L151.088,106.744c10.048,0,19.72,0.856,19.72,10.904v54.528  c0,10.056-8.896,18.184-18.944,18.184l0,0"/>
    <path style="fill:#B54523;" d="M158.408,169.92c0,4.888-3.968,13.856-8.856,13.856c-4.896,0-8.872-8.968-8.872-13.856  s3.976-8.856,8.872-8.856C154.44,161.056,158.408,165.024,158.408,169.92z"/>
    <circle style="fill:#DDDAD9;" cx="149.544" cy="169.896" r="8.864"/>
    <path style="fill:#C9C6C5;" d="M143.272,163.656c3.472-3.472,9.088-3.464,12.544,0c3.456,3.456,3.456,9.064,0,12.528"/>
    <g>
	    <path style="fill:#DDD694;" d="M165.64,158.256h-5.616c-0.44,0-0.816-0.384-0.816-0.832c0-0.464,0.376-0.832,0.816-0.832h5.616   c0.48,0,0.832,0.376,0.832,0.832C166.472,157.872,166.112,158.256,165.64,158.256z M153.376,158.256h-6.64   c-0.456,0-0.832-0.384-0.832-0.832c0-0.464,0.376-0.832,0.832-0.832h6.64c0.472,0,0.84,0.376,0.84,0.832   C154.224,157.872,153.848,158.256,153.376,158.256z M140.088,158.256h-6.648c-0.456,0-0.832-0.384-0.832-0.832   c0-0.464,0.376-0.832,0.832-0.832h6.648c0.464,0,0.832,0.376,0.832,0.832C140.928,157.872,140.552,158.256,140.088,158.256z"/>
        <path style="fill:#DDD694;" d="M165.64,153.4h-5.616c-0.44,0-0.816-0.368-0.816-0.832c0-0.472,0.376-0.832,0.816-0.832h5.616   c0.48,0,0.832,0.36,0.832,0.832C166.472,153.032,166.112,153.4,165.64,153.4z M153.376,153.4h-6.64   c-0.456,0-0.832-0.368-0.832-0.832c0-0.472,0.376-0.832,0.832-0.832h6.64c0.472,0,0.84,0.36,0.84,0.832   C154.224,153.032,153.848,153.4,153.376,153.4z M140.088,153.4h-6.648c-0.456,0-0.832-0.368-0.832-0.832   c0-0.472,0.376-0.832,0.832-0.832h6.648c0.464,0,0.832,0.36,0.832,0.832C140.928,153.032,140.552,153.4,140.088,153.4z"/>
    </g>
    <path style="fill:#186689;" d="M370.808,185.824c0,10.032-9.952,18.176-20,18.176l0,0c-10.048,0-20-8.152-20-18.176V131.28  c0-10.04,9.952-10.904,20-10.904l0,0c10.048,0,20,0.864,20,10.904V185.824z"/>
    <path style="fill:#D86639;" d="M370.808,169.144c0,10.048-8.28,21.224-18.328,21.224l0,0c-13.808,0-21.672-11.176-21.672-21.224  v-51.488c0-10.048,11.488-10.904,21.528-10.904l0,0c10.048,0,18.472,8.728,18.472,18.776V169.144z"/>
    <path style="fill:#C9552D;" d="M352.336,106.744L352.336,106.744c10.048,0,18.472,0.856,18.472,10.904v54.528  c0,10.056-8.28,18.184-18.328,18.184l0,0"/>
    <path style="fill:#B54523;" d="M360.928,169.92c0,4.888-3.968,13.856-8.856,13.856s-8.864-8.968-8.864-13.856  s3.976-8.856,8.864-8.856S360.928,165.024,360.928,169.92z"/>
    <circle style="fill:#DDDAD9;" cx="352.064" cy="169.896" r="8.864"/>
    <path style="fill:#C9C6C5;" d="M345.8,163.656c3.456-3.472,9.08-3.464,12.528,0c3.456,3.456,3.456,9.064,0,12.528"/>
    <g>
	<path style="fill:#DDD694;" d="M368.16,158.256h-5.608c-0.456,0-0.824-0.384-0.824-0.832c0-0.464,0.368-0.832,0.824-0.832h5.608   c0.472,0,0.84,0.376,0.84,0.832C369,157.872,368.632,158.256,368.16,158.256z M355.912,158.256h-6.656   c-0.448,0-0.832-0.384-0.832-0.832c0-0.464,0.384-0.832,0.832-0.832h6.656c0.472,0,0.832,0.376,0.832,0.832   C356.736,157.872,356.376,158.256,355.912,158.256z M342.616,158.256h-6.64c-0.472,0-0.84-0.384-0.84-0.832   c0-0.464,0.376-0.832,0.84-0.832h6.64c0.456,0,0.832,0.376,0.832,0.832C343.44,157.872,343.064,158.256,342.616,158.256z"/>
        <path style="fill:#DDD694;" d="M368.16,153.4h-5.608c-0.456,0-0.824-0.368-0.824-0.832c0-0.472,0.368-0.832,0.824-0.832h5.608   c0.472,0,0.84,0.36,0.84,0.832C369,153.032,368.632,153.4,368.16,153.4z M355.912,153.4h-6.656c-0.448,0-0.832-0.368-0.832-0.832   c0-0.472,0.384-0.832,0.832-0.832h6.656c0.472,0,0.832,0.36,0.832,0.832C356.736,153.032,356.376,153.4,355.912,153.4z    M342.616,153.4h-6.64c-0.472,0-0.84-0.368-0.84-0.832c0-0.472,0.376-0.832,0.84-0.832h6.64c0.456,0,0.832,0.36,0.832,0.832   C343.44,153.032,343.064,153.4,342.616,153.4z"/>
        <path style="fill:#DDD694;" d="M212.896,450.84h-8.2c-0.56,0-1.016,0.464-1.016,1.032c0,0.56,0.456,1.024,1.016,1.024h8.2   c0.568,0,1.032-0.464,1.032-1.024C213.928,451.304,213.464,450.84,212.896,450.84z"/>
        <path style="fill:#DDD694;" d="M180.104,450.84h-8.192c-0.568,0-1.032,0.464-1.032,1.032c0,0.56,0.464,1.024,1.032,1.024h8.192   c0.568,0,1.024-0.464,1.024-1.024C181.128,451.304,180.672,450.84,180.104,450.84z"/>
        <path style="fill:#DDD694;" d="M262.08,450.84h-8.2c-0.56,0-1.024,0.464-1.024,1.032c0,0.56,0.464,1.024,1.024,1.024h8.2   c0.56,0,1.016-0.464,1.016-1.024C263.096,451.304,262.64,450.84,262.08,450.84z"/>
        <path style="fill:#DDD694;" d="M229.288,450.84h-8.184c-0.576,0-1.032,0.464-1.032,1.032c0,0.56,0.456,1.024,1.032,1.024h8.184   c0.576,0,1.032-0.464,1.032-1.024C230.312,451.304,229.864,450.84,229.288,450.84z"/>
        <path style="fill:#DDD694;" d="M245.672,450.84h-8.184c-0.56,0-1.032,0.464-1.032,1.032c0,0.56,0.472,1.024,1.032,1.024h8.184   c0.576,0,1.032-0.464,1.032-1.024C246.704,451.304,246.256,450.84,245.672,450.84z"/>
        <path style="fill:#DDD694;" d="M196.504,450.84h-8.2c-0.56,0-1.032,0.464-1.032,1.032c0,0.56,0.472,1.024,1.032,1.024h8.2   c0.56,0,1.016-0.464,1.016-1.024C197.52,451.304,197.064,450.84,196.504,450.84z"/>
        <path style="fill:#DDD694;" d="M163.704,450.84h-8.184c-0.576,0-1.032,0.464-1.032,1.032c0,0.56,0.456,1.024,1.032,1.024h8.184   c0.576,0,1.032-0.464,1.032-1.024C164.736,451.304,164.288,450.84,163.704,450.84z"/>
        <path style="fill:#DDD694;" d="M98.136,450.84h-8.192c-0.576,0-1.032,0.464-1.032,1.032c0,0.56,0.456,1.024,1.032,1.024h8.192   c0.568,0,1.024-0.464,1.024-1.024C99.16,451.304,98.704,450.84,98.136,450.84z"/>
        <path style="fill:#DDD694;" d="M114.536,450.84h-8.208c-0.56,0-1.024,0.464-1.024,1.032c0,0.56,0.464,1.024,1.024,1.024h8.2   c0.56,0,1.016-0.464,1.016-1.024C115.552,451.304,115.096,450.84,114.536,450.84z"/>
        <path style="fill:#DDD694;" d="M147.312,450.84h-8.192c-0.568,0-1.024,0.464-1.024,1.032c0,0.56,0.456,1.024,1.024,1.024h1.536   v3.576c0,0.568,0.456,1.024,1.016,1.024c0.576,0,1.032-0.456,1.032-1.024v-3.576h4.608c0.568,0,1.032-0.464,1.032-1.024   C148.344,451.304,147.888,450.84,147.312,450.84z"/>
        <path style="fill:#DDD694;" d="M130.928,450.84h-8.2c-0.56,0-1.016,0.464-1.016,1.032c0,0.56,0.456,1.024,1.016,1.024h8.2   c0.56,0,1.016-0.464,1.016-1.024C131.944,451.304,131.488,450.84,130.928,450.84z"/>
        <path style="fill:#DDD694;" d="M294.864,450.84h-8.192c-0.568,0-1.024,0.464-1.024,1.032c0,0.56,0.456,1.024,1.024,1.024h8.192   c0.568,0,1.032-0.464,1.032-1.024C295.896,451.304,295.432,450.84,294.864,450.84z"/>
        <path style="fill:#DDD694;" d="M360.44,450.84h-8.184c-0.576,0-1.032,0.464-1.032,1.032c0,0.56,0.456,1.024,1.032,1.024h6.656   v3.576c0,0.568,0.456,1.024,1.016,1.024c0.576,0,1.032-0.456,1.032-1.024v-3.584c0-0.064-0.064-0.112-0.08-0.168   c0.328-0.168,0.592-0.456,0.592-0.84C361.472,451.304,361,450.84,360.44,450.84z"/>
        <path style="fill:#DDD694;" d="M278.472,450.84h-8.2c-0.56,0-1.016,0.464-1.016,1.032c0,0.56,0.456,1.024,1.016,1.024h8.2   c0.56,0,1.024-0.464,1.024-1.024C279.496,451.304,279.032,450.84,278.472,450.84z"/>
        <path style="fill:#DDD694;" d="M409.632,450.84h-8.2c-0.56,0-1.024,0.464-1.024,1.032c0,0.56,0.464,1.024,1.024,1.024h8.2   c0.56,0,1.024-0.464,1.024-1.024C410.648,451.304,410.192,450.84,409.632,450.84z"/>
        <path style="fill:#DDD694;" d="M376.832,450.84h-8.184c-0.576,0-1.032,0.464-1.032,1.032c0,0.56,0.456,1.024,1.032,1.024h8.184   c0.576,0,1.032-0.464,1.032-1.024C377.864,451.304,377.408,450.84,376.832,450.84z"/>
        <path style="fill:#DDD694;" d="M327.656,450.84h-8.2c-0.56,0-1.032,0.464-1.032,1.032c0,0.56,0.472,1.024,1.032,1.024h8.2   c0.56,0,1.016-0.464,1.016-1.024C328.672,451.304,328.224,450.84,327.656,450.84z"/>
        <path style="fill:#DDD694;" d="M311.272,450.84h-8.2c-0.568,0-1.032,0.464-1.032,1.032c0,0.56,0.464,1.024,1.032,1.024h8.2   c0.56,0,1.016-0.464,1.016-1.024C312.288,451.304,311.832,450.84,311.272,450.84z"/>
        <path style="fill:#DDD694;" d="M344.048,450.84h-8.2c-0.56,0-1.016,0.464-1.016,1.032c0,0.56,0.456,1.024,1.016,1.024h8.2   c0.56,0,1.024-0.464,1.024-1.024C345.072,451.304,344.616,450.84,344.048,450.84z"/>
        <path style="fill:#DDD694;" d="M393.232,450.84h-8.192c-0.568,0-1.024,0.464-1.024,1.032c0,0.56,0.456,1.024,1.024,1.024h8.192   c0.568,0,1.024-0.464,1.024-1.024C394.256,451.304,393.8,450.84,393.232,450.84z"/>
        <path style="fill:#DDD694;" d="M141.672,480.04c-0.56,0-1.016,0.456-1.016,1.016v8.2c0,0.56,0.456,1.024,1.016,1.024   c0.576,0,1.032-0.464,1.032-1.024v-8.2C142.704,480.496,142.256,480.04,141.672,480.04z"/>
        <path style="fill:#DDD694;" d="M141.672,463.648c-0.56,0-1.016,0.464-1.016,1.024v8.2c0,0.56,0.456,1.016,1.016,1.016   c0.576,0,1.032-0.456,1.032-1.016v-8.2C142.704,464.104,142.256,463.648,141.672,463.648z"/>
        <path style="fill:#DDD694;" d="M359.928,480.04c-0.56,0-1.016,0.456-1.016,1.016v8.2c0,0.56,0.456,1.024,1.016,1.024   c0.576,0,1.032-0.464,1.032-1.024v-8.2C360.96,480.496,360.504,480.04,359.928,480.04z"/>
        <path style="fill:#DDD694;" d="M359.928,463.648c-0.56,0-1.016,0.464-1.016,1.024v8.2c0,0.56,0.456,1.016,1.016,1.016   c0.576,0,1.032-0.456,1.032-1.016v-8.2C360.96,464.104,360.504,463.648,359.928,463.648z"/>
</g>
</svg>